# xmcd CD database file
#
# Track frame offsets:
#	150
#	10836
#	37154
#	57240
#	86994
#	113351
#	127513
#
# Disc length: 2119 seconds
#
# Revision: 0
# Processed by: cddbd v1.5.2PL0 Copyright (c) Steve Scherf et al.
# Submitted via: CDex 1.51
#
DISCID=4d084507
DTITLE=In Memory - Did I Waste MyTime
DYEAR=2003
DGENRE=Blues
TTITLE0=Did I Waste My Time
TTITLE1=Lord Of The Field
TTITLE2=Glory
TTITLE3=Discovery Of The Woman
TTITLE4=California
TTITLE5=Little Bit Of Love
TTITLE6=Texas Flood
EXTD=YEAR: 2003
EXTT0=
EXTT1=
EXTT2=
EXTT3=
EXTT4=
EXTT5=
EXTT6=
PLAYORDER=
